<svg xmlns="http://www.w3.org/2000/svg" xmlns:xlink="http://www.w3.org/1999/xlink" width="100" zoomAndPan="magnify" viewBox="0 0 75 74.999997" height="100" preserveAspectRatio="xMidYMid meet" version="1.0"><defs><clipPath id="952c222f30"><path d="M 0 4.003906 L 74 4.003906 L 74 70.753906 L 0 70.753906 Z M 0 4.003906 " clip-rule="nonzero"/></clipPath></defs><g clip-path="url(#952c222f30)"><path fill="#000000" d="M 69.070312 43.421875 C 70.121094 46.046875 69.871094 48.984375 68.574219 51.851562 C 65.691406 53.171875 63.191406 52.460938 63.058594 52.425781 C 62.578125 52.28125 62.0625 52.546875 61.917969 53.027344 C 61.765625 53.515625 62.039062 54.027344 62.523438 54.179688 C 62.648438 54.21875 64.667969 54.796875 67.273438 54.210938 C 65.914062 56.285156 64.046875 58.265625 61.753906 60.011719 C 58.347656 58.289062 53.878906 55.191406 51.613281 50.1875 C 50.289062 47.273438 49.871094 43.992188 50.359375 40.390625 C 50.519531 39.160156 50.78125 37.886719 51.152344 36.585938 C 51.644531 36.507812 52.125 36.453125 52.613281 36.40625 C 57.847656 35.886719 62.570312 36.894531 65.730469 39.210938 C 67.246094 40.316406 68.398438 41.734375 69.070312 43.421875 Z M 54.242188 64.246094 C 53.160156 64.679688 52.0625 65.046875 50.988281 65.347656 C 47.519531 63.769531 42.210938 60.550781 39.679688 54.953125 C 37.847656 50.910156 37.742188 46.167969 39.351562 40.820312 C 40.078125 40.382812 40.832031 39.972656 41.617188 39.589844 C 42.378906 39.21875 43.167969 38.863281 43.976562 38.539062 C 44.359375 38.386719 44.746094 38.242188 45.136719 38.105469 C 45.007812 38.800781 44.90625 39.484375 44.828125 40.15625 C 44.308594 44.59375 44.902344 48.707031 46.597656 52.457031 C 48.886719 57.519531 52.796875 61 56.402344 63.296875 C 55.707031 63.632812 54.984375 63.949219 54.242188 64.246094 Z M 34.929688 64.960938 C 33.121094 64.164062 31.613281 63.066406 30.507812 61.679688 C 29.484375 60.082031 28.691406 58.003906 28.539062 56.753906 C 28.246094 53.292969 29.8125 49.542969 32.765625 46.199219 C 32.496094 50.152344 33.125 53.835938 34.65625 57.226562 C 36.480469 61.25 39.316406 64.269531 42.21875 66.488281 C 39.511719 66.414062 37.023438 65.894531 34.929688 64.960938 Z M 17.722656 36.621094 C 13.082031 34.898438 8.914062 31.957031 5.742188 28.027344 C 9.839844 25.09375 14.640625 23.363281 19.738281 22.980469 C 20.167969 22.945312 20.597656 22.933594 21.027344 22.921875 C 21.144531 22.914062 21.253906 22.917969 21.371094 22.910156 C 21.734375 22.90625 22.097656 22.90625 22.46875 22.917969 C 22.578125 22.921875 22.679688 22.921875 22.789062 22.925781 C 23.160156 22.9375 23.523438 22.960938 23.890625 22.992188 C 24.003906 22.996094 24.117188 23.011719 24.230469 23.023438 C 24.546875 23.046875 24.859375 23.089844 25.171875 23.121094 C 25.371094 23.152344 25.574219 23.167969 25.773438 23.199219 C 28.847656 23.652344 31.820312 24.609375 34.5625 26.03125 C 37.925781 27.773438 40.945312 30.207031 43.378906 33.207031 C 42.585938 33.769531 41.761719 34.285156 40.925781 34.765625 C 40.5 35.007812 40.070312 35.238281 39.621094 35.457031 C 39.492188 35.527344 39.351562 35.59375 39.21875 35.65625 C 38.6875 35.910156 38.140625 36.15625 37.589844 36.378906 C 37.027344 36.601562 36.445312 36.804688 35.855469 36.992188 C 35.699219 37.042969 35.535156 37.097656 35.375 37.144531 C 33.441406 37.726562 31.441406 38.109375 29.378906 38.261719 C 25.367188 38.5625 21.398438 37.980469 17.722656 36.621094 Z M 21.492188 8.890625 C 26.523438 9.042969 31.394531 10.566406 35.679688 13.363281 C 42.058594 17.503906 46.375 24.101562 47.785156 31.425781 C 42.042969 23.679688 33.109375 18.894531 23.574219 18.363281 C 23.535156 18.359375 23.496094 18.367188 23.457031 18.363281 C 22.273438 15.375 21.585938 12.171875 21.492188 8.890625 Z M 72.421875 29.664062 C 72.324219 29.59375 72.214844 29.539062 72.089844 29.5 C 70.070312 28.851562 65.898438 28.917969 62.824219 32.902344 C 63.089844 29.761719 64.449219 27.914062 65.761719 26.867188 C 66.421875 28.054688 67.867188 28.605469 69.164062 28.085938 C 70.570312 27.527344 71.257812 25.925781 70.695312 24.519531 C 70.128906 23.105469 68.535156 22.429688 67.128906 22.992188 C 67.015625 23.035156 66.914062 23.097656 66.808594 23.15625 C 64.8125 23.925781 60.40625 26.398438 60.042969 33.113281 C 57.730469 32.679688 55.238281 32.542969 52.640625 32.753906 C 51.492188 23.347656 46.242188 14.75 38.183594 9.507812 C 32.472656 5.796875 25.882812 4 19.113281 4.324219 C 17.929688 4.371094 16.992188 5.320312 16.929688 6.5 C 16.71875 10.625 17.324219 14.683594 18.617188 18.496094 C 12.121094 19.132812 6.070312 21.648438 1.082031 25.835938 C 0.179688 26.589844 -0.00390625 27.917969 0.671875 28.894531 C 7.15625 38.351562 18.296875 43.695312 29.722656 42.839844 C 30.1875 42.808594 30.644531 42.75 31.105469 42.691406 C 26.925781 46.953125 24.617188 52.015625 24.878906 56.769531 C 24.792969 56.804688 24.710938 56.816406 24.625 56.851562 C 22.09375 57.863281 20.714844 60.351562 21.535156 62.40625 C 22.355469 64.457031 25.070312 65.3125 27.601562 64.300781 C 27.6875 64.269531 27.757812 64.21875 27.835938 64.175781 C 31.84375 68.890625 39.363281 70.988281 47.585938 69.820312 C 50.21875 69.441406 52.917969 68.726562 55.605469 67.65625 L 55.765625 67.59375 C 57.347656 66.949219 58.84375 66.214844 60.25 65.40625 C 62.191406 64.285156 63.964844 63.003906 65.527344 61.617188 C 72 55.910156 74.996094 48.359375 72.480469 42.0625 C 71.152344 38.738281 68.476562 36.21875 64.976562 34.628906 C 66.355469 32.804688 67.90625 32.167969 69.132812 31.992188 C 69.304688 32.921875 70.042969 33.675781 71.023438 33.808594 C 72.246094 33.972656 73.367188 33.117188 73.53125 31.898438 C 73.652344 30.96875 73.1875 30.097656 72.421875 29.664062 " fill-opacity="1" fill-rule="nonzero"/></g><path fill="#000000" d="M 61.570312 42.0625 C 62.148438 43.507812 61.441406 45.148438 59.996094 45.726562 C 58.550781 46.304688 56.910156 45.601562 56.332031 44.15625 C 55.753906 42.707031 56.457031 41.066406 57.90625 40.488281 C 58.136719 40.398438 58.375 40.335938 58.613281 40.3125 C 58.011719 40.660156 57.746094 41.402344 58.011719 42.066406 C 58.300781 42.796875 59.128906 43.15625 59.863281 42.863281 C 60.59375 42.570312 60.945312 41.742188 60.65625 41.011719 C 60.621094 40.929688 60.582031 40.851562 60.535156 40.777344 C 60.984375 41.082031 61.351562 41.519531 61.570312 42.0625 " fill-opacity="1" fill-rule="nonzero"/></svg>