<svg xmlns="http://www.w3.org/2000/svg" width="100" height="100" version="1.0" viewBox="0 0 75 75"><path fill="#050608" d="M64.0156 10.9844C56.9336 3.9024 47.5156 0 37.5 0S18.0664 3.9023 10.9844 10.9844C3.9024 18.0664 0 27.4844 0 37.5s3.9023 19.4336 10.9844 26.5156C18.0664 71.0976 27.4844 75 37.5 75s19.4336-3.9023 26.5156-10.9844C71.0976 56.9336 75 47.5156 75 37.5s-3.9023-19.4336-10.9844-26.5156Zm0 0"/><path fill="#fff" d="M46.457 19.6875c.586.5898 1.1133 1.2305 1.5742 1.9219.461.6914.8516 1.4218 1.172 2.1875.3163.7695.5585 1.5625.7187 2.375.164.8164.2422 1.6406.2422 2.4726 0 .832-.0782 1.6563-.2422 2.4688-.1602.8164-.4024 1.6094-.7188 2.3789a12.9402 12.9402 0 0 1-1.1718 2.1875c-.461.6914-.9883 1.332-1.5743 1.9219-.5898.5859-1.2304 1.1132-1.9218 1.5742-.6915.461-1.418.8515-2.1875 1.168-.7696.3203-1.5625.5585-2.375.7226a12.8167 12.8167 0 0 1-2.4727.2422c-.832 0-1.6563-.082-2.4688-.2422-.8164-.164-1.6093-.4023-2.3789-.7227a12.648 12.648 0 0 1-2.1875-1.168c-.6914-.4609-1.332-.9882-1.9218-1.5741a13.0473 13.0473 0 0 1-1.5742-1.922 12.6482 12.6482 0 0 1-1.168-2.1874c-.3203-.7695-.5586-1.5625-.7227-2.379a12.7466 12.7466 0 0 1-.2422-2.4687c0-.832.082-1.6562.2422-2.4726.164-.8125.4024-1.6055.7227-2.375a12.648 12.648 0 0 1 1.168-2.1875 13.0473 13.0473 0 0 1 1.5742-1.9219c.5898-.586 1.2304-1.1133 1.9218-1.5742a12.6482 12.6482 0 0 1 2.1875-1.168c.7696-.3203 1.5625-.5586 2.379-.7226.8124-.1641 1.6367-.2422 2.4687-.2422.832 0 1.6563.078 2.4727.2422.8125.164 1.6054.4023 2.375.7226.7695.3164 1.496.707 2.1875 1.168.6914.461 1.332.9883 1.9218 1.5742ZM37.8672 46.9375h-.7344c-10.3476 0-19.0625 6.9844-21.6875 16.5 5.9453 5.0664 13.6485 8.125 22.0547 8.125 8.4063 0 16.1094-3.0586 22.0547-8.125-2.625-9.5117-11.3399-16.5-21.6875-16.5Zm0 0"/></svg>