<svg xmlns="http://www.w3.org/2000/svg" xmlns:xlink="http://www.w3.org/1999/xlink" width="50" zoomAndPan="magnify" viewBox="0 0 37.5 37.499999" height="50" preserveAspectRatio="xMidYMid meet" version="1.0"><defs><clipPath id="92e89209a5"><path d="M 5 23 L 32 23 L 32 37.007812 L 5 37.007812 Z M 5 23 " clip-rule="nonzero"/></clipPath><clipPath id="9fdae40f52"><path d="M 4.625 0 L 32.75 0 L 32.75 28 L 4.625 28 Z M 4.625 0 " clip-rule="nonzero"/></clipPath></defs><g clip-path="url(#92e89209a5)"><path fill="#a30000" d="M 31.351562 32.367188 L 26.238281 23.957031 C 26.082031 23.703125 25.804688 23.550781 25.507812 23.550781 L 11.871094 23.550781 C 11.570312 23.550781 11.292969 23.703125 11.140625 23.957031 L 6.027344 32.367188 C 5.851562 32.652344 5.867188 33.011719 6.058594 33.285156 C 6.253906 33.558594 6.59375 33.691406 6.925781 33.625 L 10.492188 32.921875 L 11.929688 36.476562 C 12.058594 36.789062 12.363281 37 12.703125 37.003906 C 13.039062 37.023438 13.359375 36.820312 13.5 36.511719 L 17.53125 27.753906 L 19.84375 27.753906 L 23.878906 36.515625 C 24.015625 36.8125 24.320312 37.007812 24.652344 37.007812 C 24.660156 37.007812 24.667969 37.007812 24.675781 37.007812 C 25.015625 37 25.320312 36.792969 25.445312 36.476562 L 26.886719 32.921875 L 30.453125 33.625 C 30.785156 33.695312 31.121094 33.558594 31.316406 33.285156 C 31.511719 33.011719 31.523438 32.652344 31.351562 32.367188 Z M 31.351562 32.367188 " fill-opacity="1" fill-rule="nonzero"/></g><g clip-path="url(#9fdae40f52)"><path fill="#f5c12e" d="M 32.757812 13.882812 C 32.757812 13.074219 32.347656 12.328125 31.671875 11.878906 C 31.507812 11.773438 31.394531 11.609375 31.355469 11.417969 C 31.320312 11.226562 31.359375 11.03125 31.46875 10.871094 C 31.925781 10.203125 32.011719 9.359375 31.703125 8.613281 C 31.394531 7.867188 30.730469 7.328125 29.863281 7.15625 C 29.46875 7.078125 29.210938 6.695312 29.300781 6.242188 C 29.460938 5.449219 29.214844 4.636719 28.636719 4.066406 C 28.058594 3.496094 27.234375 3.25 26.433594 3.410156 C 26.238281 3.449219 26.042969 3.410156 25.878906 3.300781 C 25.71875 3.195312 25.605469 3.027344 25.570312 2.835938 C 25.414062 2.046875 24.871094 1.386719 24.117188 1.078125 C 23.363281 0.765625 22.503906 0.847656 21.769531 1.328125 C 21.433594 1.546875 20.976562 1.457031 20.71875 1.074219 C 20.265625 0.398438 19.503906 0 18.6875 0 C 17.871094 0 17.113281 0.398438 16.660156 1.070312 C 16.550781 1.234375 16.382812 1.34375 16.191406 1.382812 C 15.996094 1.417969 15.800781 1.378906 15.636719 1.269531 C 14.960938 0.820312 14.105469 0.734375 13.347656 1.039062 C 12.59375 1.34375 12.042969 2 11.871094 2.855469 C 11.789062 3.246094 11.402344 3.5 10.945312 3.410156 C 10.140625 3.25 9.320312 3.496094 8.742188 4.066406 C 8.164062 4.636719 7.914062 5.449219 8.074219 6.238281 C 8.113281 6.429688 8.074219 6.625 7.964844 6.785156 C 7.855469 6.945312 7.6875 7.054688 7.496094 7.09375 C 6.695312 7.246094 6.027344 7.78125 5.710938 8.527344 C 5.394531 9.273438 5.476562 10.117188 5.964844 10.84375 C 6.191406 11.175781 6.097656 11.625 5.707031 11.878906 C 5.027344 12.328125 4.621094 13.078125 4.621094 13.882812 C 4.621094 14.691406 5.027344 15.4375 5.707031 15.886719 C 5.871094 15.992188 5.984375 16.15625 6.019531 16.347656 C 6.058594 16.539062 6.019531 16.734375 5.910156 16.894531 C 5.453125 17.5625 5.363281 18.40625 5.675781 19.152344 C 5.984375 19.898438 6.648438 20.4375 7.511719 20.609375 C 7.910156 20.6875 8.167969 21.070312 8.074219 21.527344 C 7.914062 22.316406 8.164062 23.128906 8.742188 23.699219 C 9.320312 24.269531 10.144531 24.515625 10.945312 24.355469 C 11.136719 24.320312 11.335938 24.359375 11.496094 24.464844 C 11.660156 24.574219 11.773438 24.738281 11.808594 24.929688 C 11.964844 25.71875 12.507812 26.378906 13.261719 26.691406 C 14.019531 27 14.875 26.917969 15.605469 26.4375 C 15.945312 26.21875 16.398438 26.308594 16.660156 26.695312 C 17.113281 27.363281 17.871094 27.765625 18.6875 27.765625 C 19.507812 27.765625 20.265625 27.363281 20.71875 26.695312 C 20.828125 26.53125 20.992188 26.421875 21.1875 26.386719 C 21.378906 26.347656 21.578125 26.386719 21.738281 26.496094 C 22.417969 26.945312 23.273438 27.035156 24.027344 26.726562 C 24.785156 26.421875 25.332031 25.765625 25.507812 24.914062 C 25.585938 24.519531 25.972656 24.269531 26.433594 24.355469 C 27.234375 24.515625 28.058594 24.269531 28.636719 23.699219 C 29.214844 23.128906 29.460938 22.316406 29.300781 21.527344 C 29.261719 21.335938 29.300781 21.140625 29.410156 20.980469 C 29.523438 20.820312 29.6875 20.710938 29.882812 20.671875 C 30.683594 20.519531 31.351562 19.984375 31.664062 19.238281 C 31.980469 18.492188 31.898438 17.648438 31.410156 16.925781 C 31.1875 16.59375 31.277344 16.140625 31.617188 15.921875 L 31.144531 15.222656 L 31.667969 15.886719 C 32.351562 15.4375 32.757812 14.6875 32.757812 13.882812 Z M 32.757812 13.882812 " fill-opacity="1" fill-rule="nonzero"/></g><path fill="#ec7a08" d="M 28.0625 13.882812 C 28.0625 14.488281 28.003906 15.089844 27.882812 15.6875 C 27.761719 16.285156 27.585938 16.863281 27.351562 17.421875 C 27.113281 17.984375 26.824219 18.515625 26.484375 19.023438 C 26.140625 19.527344 25.753906 19.996094 25.316406 20.425781 C 24.882812 20.855469 24.410156 21.238281 23.898438 21.574219 C 23.386719 21.914062 22.84375 22.199219 22.277344 22.429688 C 21.707031 22.664062 21.121094 22.835938 20.515625 22.957031 C 19.914062 23.074219 19.304688 23.132812 18.6875 23.132812 C 18.074219 23.132812 17.464844 23.074219 16.859375 22.957031 C 16.253906 22.835938 15.667969 22.664062 15.101562 22.429688 C 14.53125 22.199219 13.992188 21.914062 13.480469 21.574219 C 12.96875 21.238281 12.496094 20.855469 12.058594 20.425781 C 11.625 19.996094 11.234375 19.527344 10.894531 19.023438 C 10.550781 18.515625 10.261719 17.984375 10.027344 17.421875 C 9.792969 16.863281 9.613281 16.285156 9.492188 15.6875 C 9.375 15.089844 9.3125 14.488281 9.3125 13.882812 C 9.3125 13.273438 9.375 12.671875 9.492188 12.078125 C 9.613281 11.480469 9.792969 10.902344 10.027344 10.34375 C 10.261719 9.78125 10.550781 9.246094 10.894531 8.742188 C 11.234375 8.238281 11.625 7.769531 12.058594 7.339844 C 12.496094 6.910156 12.96875 6.527344 13.480469 6.191406 C 13.992188 5.851562 14.53125 5.566406 15.101562 5.335938 C 15.667969 5.101562 16.253906 4.925781 16.859375 4.808594 C 17.464844 4.691406 18.074219 4.632812 18.6875 4.632812 C 19.304688 4.632812 19.914062 4.691406 20.515625 4.808594 C 21.121094 4.925781 21.707031 5.101562 22.277344 5.335938 C 22.84375 5.566406 23.386719 5.851562 23.898438 6.191406 C 24.410156 6.527344 24.882812 6.910156 25.316406 7.339844 C 25.753906 7.769531 26.140625 8.238281 26.484375 8.742188 C 26.824219 9.246094 27.113281 9.78125 27.351562 10.34375 C 27.585938 10.902344 27.761719 11.480469 27.882812 12.078125 C 28.003906 12.671875 28.0625 13.273438 28.0625 13.882812 Z M 28.0625 13.882812 " fill-opacity="1" fill-rule="nonzero"/><path fill="#f5c12e" d="M 24.746094 11.941406 C 24.628906 11.59375 24.304688 11.359375 23.933594 11.359375 L 20.546875 11.359375 L 19.5 8.179688 C 19.382812 7.832031 19.058594 7.597656 18.6875 7.597656 C 18.320312 7.597656 17.992188 7.832031 17.878906 8.179688 L 16.832031 11.359375 L 13.441406 11.359375 C 13.074219 11.359375 12.746094 11.59375 12.632812 11.941406 C 12.515625 12.285156 12.640625 12.667969 12.941406 12.878906 L 15.679688 14.84375 L 14.632812 18.027344 C 14.519531 18.371094 14.644531 18.75 14.945312 18.964844 C 15.242188 19.179688 15.648438 19.179688 15.945312 18.964844 L 18.6875 17 L 21.429688 18.964844 C 21.578125 19.074219 21.753906 19.128906 21.929688 19.128906 C 22.105469 19.128906 22.28125 19.074219 22.429688 18.964844 C 22.730469 18.753906 22.855469 18.371094 22.742188 18.027344 L 21.695312 14.847656 L 24.433594 12.882812 C 24.734375 12.667969 24.859375 12.285156 24.746094 11.941406 Z M 24.746094 11.941406 " fill-opacity="1" fill-rule="nonzero"/></svg>