<svg xmlns="http://www.w3.org/2000/svg" xmlns:xlink="http://www.w3.org/1999/xlink" width="100" zoomAndPan="magnify" viewBox="0 0 75 74.999997" height="100" preserveAspectRatio="xMidYMid meet" version="1.0"><defs><clipPath id="a969a91aa1"><path d="M 5.453125 0 L 69.203125 0 L 69.203125 75 L 5.453125 75 Z M 5.453125 0 " clip-rule="nonzero"/></clipPath></defs><g clip-path="url(#a969a91aa1)"><path fill="#004aad" d="M 68.753906 62.113281 C 66.742188 58.578125 64.730469 55.046875 62.71875 51.511719 C 61.144531 48.75 59.574219 45.980469 57.980469 43.179688 C 58.273438 43.027344 58.539062 42.832031 58.769531 42.597656 C 59.003906 42.359375 59.195312 42.09375 59.34375 41.796875 C 59.492188 41.5 59.589844 41.191406 59.640625 40.863281 C 59.691406 40.535156 59.6875 40.207031 59.632812 39.878906 C 59.402344 37.839844 59.160156 35.804688 58.898438 33.773438 C 58.839844 33.480469 58.914062 33.234375 59.128906 33.03125 C 60.546875 31.566406 61.945312 30.089844 63.347656 28.617188 C 63.65625 28.332031 63.894531 27.996094 64.0625 27.609375 C 64.230469 27.226562 64.316406 26.824219 64.320312 26.402344 C 64.320312 25.984375 64.242188 25.582031 64.078125 25.195312 C 63.914062 24.804688 63.683594 24.46875 63.378906 24.175781 C 62.019531 22.707031 60.667969 21.230469 59.292969 19.773438 C 59.011719 19.511719 58.914062 19.1875 58.996094 18.8125 C 59.300781 16.785156 59.585938 14.757812 59.847656 12.722656 C 59.925781 12.316406 59.917969 11.914062 59.828125 11.511719 C 59.734375 11.109375 59.570312 10.738281 59.324219 10.40625 C 59.082031 10.074219 58.785156 9.800781 58.429688 9.589844 C 58.074219 9.378906 57.691406 9.246094 57.285156 9.195312 C 55.273438 8.800781 53.265625 8.386719 51.25 8.011719 C 50.9375 7.96875 50.71875 7.804688 50.589844 7.515625 C 49.574219 5.621094 48.550781 3.734375 47.519531 1.847656 C 47.273438 1.324219 46.894531 0.921875 46.386719 0.640625 C 45.882812 0.359375 45.339844 0.25 44.761719 0.3125 C 44.253906 0.363281 43.769531 0.5 43.308594 0.71875 C 41.5 1.53125 39.703125 2.378906 37.910156 3.226562 C 37.648438 3.367188 37.390625 3.367188 37.132812 3.21875 C 35.28125 2.300781 33.421875 1.398438 31.566406 0.492188 C 31.390625 0.390625 31.207031 0.304688 31.015625 0.238281 C 30.824219 0.175781 30.628906 0.128906 30.429688 0.105469 C 30.226562 0.0820312 30.027344 0.0820312 29.824219 0.101562 C 29.621094 0.117188 29.425781 0.160156 29.230469 0.21875 C 29.039062 0.28125 28.855469 0.359375 28.679688 0.460938 C 28.5 0.558594 28.339844 0.675781 28.1875 0.808594 C 28.035156 0.945312 27.898438 1.09375 27.777344 1.253906 C 27.660156 1.417969 27.558594 1.59375 27.472656 1.777344 C 26.457031 3.59375 25.457031 5.425781 24.429688 7.234375 C 24.292969 7.457031 24.105469 7.601562 23.855469 7.667969 C 21.808594 8.054688 19.753906 8.410156 17.703125 8.765625 C 17.289062 8.820312 16.90625 8.953125 16.546875 9.164062 C 16.191406 9.375 15.886719 9.648438 15.640625 9.984375 C 15.394531 10.320312 15.226562 10.691406 15.132812 11.09375 C 15.039062 11.5 15.027344 11.910156 15.101562 12.316406 C 15.363281 14.367188 15.585938 16.421875 15.84375 18.472656 C 15.894531 18.785156 15.804688 19.046875 15.574219 19.257812 C 14.191406 20.683594 12.867188 22.167969 11.445312 23.550781 C 11.128906 23.851562 10.886719 24.199219 10.710938 24.597656 C 10.539062 25 10.449219 25.414062 10.449219 25.851562 C 10.445312 26.285156 10.53125 26.703125 10.699219 27.105469 C 10.867188 27.507812 11.109375 27.859375 11.421875 28.160156 C 12.824219 29.589844 14.148438 31.09375 15.515625 32.554688 C 15.738281 32.753906 15.820312 32.996094 15.765625 33.289062 C 15.460938 35.351562 15.1875 37.414062 14.890625 39.476562 C 14.832031 39.789062 14.824219 40.105469 14.867188 40.421875 C 14.90625 40.738281 14.996094 41.039062 15.132812 41.324219 C 15.269531 41.613281 15.445312 41.875 15.664062 42.105469 C 15.882812 42.335938 16.132812 42.527344 16.414062 42.679688 C 16.519531 42.746094 16.625 42.816406 16.746094 42.890625 C 16.660156 43.058594 16.585938 43.203125 16.503906 43.34375 C 12.96875 49.613281 9.457031 55.898438 5.875 62.144531 C 5.707031 62.398438 5.617188 62.675781 5.609375 62.976562 C 5.601562 63.28125 5.671875 63.5625 5.828125 63.824219 C 5.980469 64.085938 6.191406 64.289062 6.460938 64.429688 C 6.730469 64.570312 7.015625 64.628906 7.316406 64.605469 C 10.976562 64.539062 14.636719 64.589844 18.296875 64.570312 C 18.472656 64.554688 18.640625 64.59375 18.792969 64.683594 C 18.945312 64.773438 19.058594 64.902344 19.128906 65.066406 C 20.78125 67.976562 22.445312 70.878906 24.121094 73.773438 C 24.230469 74.058594 24.40625 74.285156 24.65625 74.460938 C 24.90625 74.632812 25.183594 74.71875 25.488281 74.71875 C 25.792969 74.714844 26.070312 74.628906 26.320312 74.453125 C 26.570312 74.28125 26.746094 74.050781 26.851562 73.765625 C 30.234375 67.992188 33.617188 62.21875 37 56.449219 C 37.085938 56.300781 37.183594 56.160156 37.304688 55.96875 C 37.433594 56.179688 37.527344 56.328125 37.617188 56.484375 C 40.976562 62.289062 44.332031 68.097656 47.691406 73.90625 C 47.808594 74.203125 48 74.441406 48.261719 74.628906 C 48.523438 74.8125 48.8125 74.910156 49.132812 74.925781 C 49.453125 74.90625 49.742188 74.800781 50 74.613281 C 50.253906 74.421875 50.441406 74.175781 50.550781 73.878906 C 52.191406 70.925781 53.855469 67.984375 55.496094 65.03125 C 55.558594 64.878906 55.660156 64.761719 55.800781 64.679688 C 55.941406 64.59375 56.089844 64.558594 56.253906 64.574219 C 59.929688 64.59375 63.605469 64.585938 67.28125 64.585938 C 68.835938 64.582031 69.511719 63.445312 68.753906 62.113281 Z M 13.652344 26.40625 C 13.542969 26.285156 13.441406 26.160156 13.3125 26.011719 C 13.429688 25.882812 13.53125 25.757812 13.640625 25.640625 C 15.035156 24.179688 16.417969 22.710938 17.824219 21.265625 C 18.203125 20.898438 18.472656 20.46875 18.632812 19.96875 C 18.792969 19.464844 18.824219 18.957031 18.730469 18.441406 C 18.449219 16.445312 18.253906 14.433594 17.988281 12.433594 C 17.921875 11.957031 18.039062 11.785156 18.527344 11.703125 C 20.5625 11.375 22.59375 10.996094 24.632812 10.644531 C 25.117188 10.570312 25.5625 10.386719 25.960938 10.097656 C 26.359375 9.808594 26.667969 9.445312 26.890625 9.003906 C 27.851562 7.25 28.832031 5.503906 29.804688 3.757812 C 29.902344 3.570312 30.011719 3.390625 30.136719 3.171875 C 30.496094 3.34375 30.835938 3.5 31.167969 3.664062 C 32.832031 4.476562 34.5 5.285156 36.160156 6.105469 C 36.582031 6.324219 37.03125 6.4375 37.507812 6.441406 C 37.980469 6.445312 38.429688 6.335938 38.855469 6.121094 C 40.890625 5.171875 42.933594 4.246094 45.039062 3.285156 C 45.785156 4.695312 46.507812 6.054688 47.230469 7.414062 C 47.566406 8.050781 47.894531 8.695312 48.246094 9.324219 C 48.449219 9.734375 48.738281 10.074219 49.109375 10.347656 C 49.476562 10.617188 49.890625 10.789062 50.339844 10.863281 C 52.46875 11.253906 54.585938 11.695312 56.710938 12.117188 C 56.792969 12.132812 56.867188 12.160156 57.007812 12.199219 C 56.925781 12.8125 56.847656 13.421875 56.761719 14.03125 C 56.523438 15.71875 56.269531 17.40625 56.046875 19.097656 C 55.984375 19.527344 56.019531 19.949219 56.15625 20.363281 C 56.289062 20.773438 56.511719 21.136719 56.816406 21.445312 C 58.246094 22.984375 59.671875 24.527344 61.09375 26.070312 C 61.203125 26.191406 61.308594 26.3125 61.4375 26.460938 L 58.144531 29.867188 C 57.6875 30.339844 57.234375 30.8125 56.773438 31.277344 C 56.429688 31.601562 56.183594 31.984375 56.03125 32.425781 C 55.878906 32.871094 55.839844 33.324219 55.910156 33.785156 C 56.164062 35.851562 56.410156 37.921875 56.65625 39.988281 C 56.675781 40.167969 56.6875 40.34375 56.710938 40.574219 C 55.722656 40.742188 54.753906 40.90625 53.789062 41.066406 C 52.5625 41.273438 51.324219 41.460938 50.101562 41.679688 C 49.640625 41.757812 49.21875 41.933594 48.84375 42.210938 C 48.464844 42.488281 48.167969 42.832031 47.953125 43.25 C 46.957031 45.058594 45.953125 46.867188 44.949219 48.671875 C 44.871094 48.8125 44.785156 48.953125 44.683594 49.125 C 44.546875 49.070312 44.414062 49.019531 44.289062 48.960938 C 42.414062 48.046875 40.542969 47.140625 38.679688 46.214844 C 38.25 45.992188 37.792969 45.875 37.308594 45.875 C 36.824219 45.871094 36.367188 45.980469 35.9375 46.203125 C 34.042969 47.105469 32.140625 47.992188 30.242188 48.886719 C 30.097656 48.953125 29.945312 49.015625 29.773438 49.09375 C 29.160156 47.945312 28.566406 46.832031 27.976562 45.71875 C 27.523438 44.863281 27.078125 44.007812 26.621094 43.152344 C 26.40625 42.710938 26.101562 42.34375 25.703125 42.050781 C 25.304688 41.761719 24.863281 41.582031 24.375 41.515625 C 22.253906 41.167969 20.148438 40.746094 18.035156 40.355469 C 17.925781 40.335938 17.820312 40.292969 17.65625 40.246094 C 17.78125 39.347656 17.898438 38.460938 18.023438 37.570312 C 18.21875 36.191406 18.417969 34.808594 18.605469 33.425781 C 18.675781 32.980469 18.640625 32.546875 18.507812 32.117188 C 18.371094 31.6875 18.144531 31.308594 17.832031 30.988281 C 16.433594 29.464844 15.039062 27.9375 13.652344 26.40625 Z M 64.457031 61.644531 C 61.375 61.644531 58.289062 61.652344 55.207031 61.636719 C 54.863281 61.613281 54.542969 61.683594 54.246094 61.855469 C 53.945312 62.027344 53.722656 62.269531 53.574219 62.578125 C 52.207031 65.046875 50.808594 67.496094 49.429688 69.953125 C 49.339844 70.109375 49.25 70.257812 49.105469 70.507812 L 39.589844 54 C 39.054688 53.25 38.328125 52.839844 37.414062 52.761719 C 36.902344 52.753906 36.421875 52.867188 35.96875 53.097656 C 35.511719 53.332031 35.140625 53.65625 34.847656 54.070312 C 30.148438 62.183594 28.3125 65.421875 27.742188 66.488281 C 27.585938 66.785156 26.832031 68.074219 25.828125 69.8125 C 25.75 69.953125 25.660156 70.082031 25.542969 70.269531 C 24.640625 68.710938 23.769531 67.210938 22.902344 65.707031 C 22.296875 64.660156 21.679688 63.613281 21.082031 62.558594 C 20.929688 62.257812 20.707031 62.023438 20.417969 61.855469 C 20.125 61.6875 19.8125 61.617188 19.476562 61.636719 C 16.375 61.65625 13.277344 61.644531 10.175781 61.644531 L 9.550781 61.644531 C 9.648438 61.453125 9.707031 61.3125 9.78125 61.179688 C 13.015625 55.457031 16.246094 49.730469 19.476562 44.003906 C 19.53125 43.855469 19.628906 43.746094 19.773438 43.683594 C 19.914062 43.617188 20.0625 43.609375 20.207031 43.664062 C 21.316406 43.894531 22.4375 44.050781 23.546875 44.277344 C 23.792969 44.34375 23.984375 44.484375 24.121094 44.699219 C 25.132812 46.519531 26.125 48.351562 27.109375 50.183594 C 27.277344 50.566406 27.511719 50.898438 27.820312 51.179688 C 28.125 51.464844 28.476562 51.671875 28.871094 51.808594 C 29.265625 51.941406 29.667969 51.992188 30.085938 51.957031 C 30.5 51.921875 30.890625 51.804688 31.253906 51.605469 C 32.207031 51.222656 33.136719 50.796875 34.046875 50.320312 C 34.808594 49.878906 35.644531 49.570312 36.414062 49.128906 C 36.644531 48.984375 36.894531 48.914062 37.164062 48.910156 C 37.351562 48.910156 37.53125 48.949219 37.699219 49.03125 C 39.503906 49.925781 41.339844 50.765625 43.125 51.703125 C 43.5 51.90625 43.902344 52.027344 44.324219 52.066406 C 44.75 52.105469 45.164062 52.0625 45.570312 51.933594 C 45.976562 51.804688 46.34375 51.605469 46.667969 51.328125 C 46.992188 51.050781 47.246094 50.722656 47.4375 50.339844 C 48.347656 48.542969 49.390625 46.8125 50.351562 45.039062 C 50.492188 44.738281 50.726562 44.570312 51.058594 44.535156 C 52.242188 44.335938 53.417969 44.125 54.589844 43.886719 C 54.722656 43.835938 54.851562 43.84375 54.980469 43.898438 C 55.105469 43.957031 55.195312 44.050781 55.246094 44.183594 C 58.140625 49.308594 61.042969 54.425781 63.957031 59.542969 C 64.335938 60.207031 64.714844 60.878906 65.148438 61.648438 Z M 37.222656 40.933594 C 38.191406 40.941406 39.15625 40.851562 40.109375 40.667969 C 41.0625 40.484375 41.988281 40.207031 42.886719 39.84375 C 43.785156 39.476562 44.640625 39.023438 45.449219 38.488281 C 46.261719 37.953125 47.011719 37.347656 47.703125 36.664062 C 48.390625 35.980469 49.007812 35.234375 49.550781 34.433594 C 50.09375 33.628906 50.554688 32.777344 50.929688 31.882812 C 51.308594 30.988281 51.59375 30.0625 51.785156 29.113281 C 51.980469 28.160156 52.078125 27.199219 52.082031 26.230469 C 52.089844 25.257812 51.996094 24.296875 51.8125 23.34375 C 51.628906 22.390625 51.351562 21.464844 50.984375 20.566406 C 50.613281 19.667969 50.164062 18.8125 49.625 18.003906 C 49.089844 17.195312 48.480469 16.445312 47.796875 15.753906 C 47.113281 15.066406 46.367188 14.449219 45.5625 13.90625 C 44.757812 13.367188 43.90625 12.90625 43.011719 12.53125 C 42.113281 12.15625 41.191406 11.875 40.238281 11.679688 C 39.289062 11.488281 38.328125 11.390625 37.355469 11.386719 C 36.382812 11.386719 35.421875 11.476562 34.46875 11.664062 C 33.515625 11.851562 32.589844 12.128906 31.695312 12.5 C 30.796875 12.867188 29.941406 13.320312 29.132812 13.859375 C 28.324219 14.394531 27.578125 15.007812 26.886719 15.691406 C 26.199219 16.375 25.585938 17.121094 25.042969 17.929688 C 24.503906 18.734375 24.046875 19.585938 23.671875 20.484375 C 23.300781 21.378906 23.019531 22.304688 22.828125 23.253906 C 22.636719 24.207031 22.539062 25.167969 22.539062 26.140625 C 22.539062 27.105469 22.632812 28.0625 22.824219 29.011719 C 23.011719 29.957031 23.289062 30.878906 23.660156 31.773438 C 24.027344 32.664062 24.480469 33.515625 25.015625 34.320312 C 25.546875 35.125 26.15625 35.871094 26.835938 36.554688 C 27.519531 37.242188 28.257812 37.855469 29.058594 38.398438 C 29.859375 38.9375 30.707031 39.394531 31.597656 39.769531 C 32.488281 40.148438 33.40625 40.433594 34.351562 40.628906 C 35.296875 40.824219 36.253906 40.925781 37.222656 40.933594 Z M 37.332031 14.324219 C 38.109375 14.328125 38.878906 14.402344 39.644531 14.558594 C 40.40625 14.710938 41.144531 14.9375 41.863281 15.234375 C 42.582031 15.535156 43.261719 15.902344 43.910156 16.335938 C 44.554688 16.769531 45.152344 17.261719 45.699219 17.8125 C 46.25 18.363281 46.738281 18.960938 47.167969 19.609375 C 47.597656 20.257812 47.960938 20.941406 48.257812 21.660156 C 48.554688 22.378906 48.777344 23.121094 48.925781 23.886719 C 49.074219 24.648438 49.148438 25.417969 49.144531 26.195312 C 49.144531 26.972656 49.066406 27.742188 48.910156 28.507812 C 48.757812 29.269531 48.53125 30.007812 48.230469 30.726562 C 47.929688 31.441406 47.5625 32.125 47.128906 32.769531 C 46.695312 33.414062 46.199219 34.011719 45.648438 34.558594 C 45.097656 35.105469 44.496094 35.597656 43.847656 36.027344 C 43.199219 36.457031 42.515625 36.816406 41.796875 37.113281 C 41.078125 37.40625 40.335938 37.628906 39.574219 37.777344 C 38.808594 37.925781 38.039062 38 37.261719 37.996094 C 36.484375 37.992188 35.714844 37.914062 34.949219 37.757812 C 34.1875 37.601562 33.449219 37.375 32.730469 37.074219 C 32.015625 36.773438 31.335938 36.40625 30.691406 35.96875 C 30.046875 35.535156 29.449219 35.042969 28.902344 34.488281 C 28.355469 33.9375 27.867188 33.335938 27.4375 32.6875 C 27.007812 32.039062 26.648438 31.351562 26.351562 30.632812 C 26.058594 29.914062 25.839844 29.171875 25.691406 28.40625 C 25.542969 27.644531 25.472656 26.875 25.476562 26.097656 C 25.480469 25.320312 25.5625 24.554688 25.71875 23.796875 C 25.875 23.035156 26.101562 22.300781 26.402344 21.585938 C 26.703125 20.871094 27.070312 20.191406 27.503906 19.550781 C 27.9375 18.90625 28.429688 18.3125 28.980469 17.769531 C 29.527344 17.222656 30.128906 16.734375 30.773438 16.304688 C 31.417969 15.878906 32.097656 15.515625 32.816406 15.21875 C 33.53125 14.925781 34.269531 14.703125 35.03125 14.550781 C 35.789062 14.402344 36.558594 14.324219 37.332031 14.324219 Z M 30.640625 28.007812 C 30.472656 27.863281 30.34375 27.6875 30.25 27.488281 C 30.15625 27.285156 30.105469 27.074219 30.097656 26.851562 C 30.09375 26.632812 30.128906 26.417969 30.210938 26.210938 C 30.292969 26.003906 30.414062 25.824219 30.570312 25.667969 C 30.730469 25.511719 30.910156 25.394531 31.117188 25.3125 C 31.324219 25.234375 31.539062 25.195312 31.761719 25.203125 C 31.984375 25.214844 32.195312 25.265625 32.394531 25.359375 C 32.59375 25.457031 32.765625 25.589844 32.910156 25.757812 C 33.601562 26.433594 34.269531 27.128906 34.988281 27.859375 L 39.324219 23.515625 C 40.101562 22.738281 40.875 21.960938 41.652344 21.1875 C 41.796875 21.011719 41.972656 20.875 42.171875 20.777344 C 42.375 20.675781 42.589844 20.621094 42.816406 20.609375 C 43.039062 20.597656 43.257812 20.632812 43.46875 20.714844 C 43.679688 20.796875 43.863281 20.917969 44.023438 21.078125 C 44.183594 21.234375 44.304688 21.421875 44.386719 21.632812 C 44.46875 21.839844 44.503906 22.058594 44.496094 22.285156 C 44.488281 22.511719 44.433594 22.722656 44.332031 22.925781 C 44.230469 23.128906 44.097656 23.304688 43.921875 23.449219 C 41.355469 26.027344 38.785156 28.601562 36.207031 31.171875 C 36.054688 31.34375 35.875 31.480469 35.664062 31.578125 C 35.457031 31.671875 35.238281 31.71875 35.007812 31.71875 C 34.777344 31.71875 34.558594 31.671875 34.347656 31.578125 C 34.136719 31.480469 33.957031 31.34375 33.808594 31.171875 C 32.746094 30.128906 31.6875 29.074219 30.640625 28.007812 Z M 30.640625 28.007812 " fill-opacity="1" fill-rule="nonzero"/></g></svg>